<?xml version="1.0" standalone="no"?>
<!DOCTYPE svg PUBLIC "-//W3C//DTD SVG 20010904//EN"
 "http://www.w3.org/TR/2001/REC-SVG-20010904/DTD/svg10.dtd">
<svg version="1.0" xmlns="http://www.w3.org/2000/svg"
 width="300.000000pt" height="300.000000pt" viewBox="0 0 300.000000 300.000000"
 preserveAspectRatio="xMidYMid meet">
<metadata>
Created by potrace 1.10, written by Peter Selinger 2001-2011
</metadata>
<g transform="translate(0.000000,300.000000) scale(0.100000,-0.100000)"
fill="#000000" stroke="none">
<path d="M1345 2874 c-350 -51 -620 -185 -850 -425 -199 -207 -346 -506 -371
-757 -3 -32 -8 -68 -10 -82 -4 -16 -2 -21 4 -15 5 6 12 35 15 65 18 179 86
377 185 541 233 384 614 620 1061 659 256 23 499 -24 733 -141 180 -89 319
-201 444 -354 163 -200 275 -461 299 -698 4 -37 11 -70 16 -73 20 -12 -23 221
-62 336 -64 192 -166 362 -310 514 -199 210 -437 344 -722 407 -89 20 -356 34
-432 23z"/>
<path d="M1200 2665 c0 -33 2 -35 33 -34 23 1 26 3 10 6 -13 2 -23 8 -23 13 0
5 10 11 23 13 l22 4 -22 2 c-13 0 -23 5 -23 10 0 5 10 12 23 14 16 3 13 5 -10
6 -31 1 -33 -1 -33 -34z"/>
<path d="M1280 2684 c0 -9 9 -18 20 -21 11 -3 20 -10 20 -15 0 -6 -9 -8 -20
-5 -21 6 -28 -9 -7 -16 20 -6 47 4 47 19 0 8 -11 19 -25 24 -14 5 -25 12 -25
16 0 3 11 3 25 0 14 -4 25 -2 25 4 0 5 -13 10 -30 10 -21 0 -30 -5 -30 -16z"/>
<path d="M1358 2693 c6 -2 12 -18 12 -34 0 -16 5 -29 10 -29 6 0 10 13 10 29
0 16 6 32 13 34 6 3 -4 5 -23 5 -19 0 -29 -2 -22 -5z"/>
<path d="M1430 2665 c0 -35 1 -36 33 -33 28 3 32 6 32 33 0 27 -4 30 -32 33
-32 3 -33 2 -33 -33z m47 14 c16 -16 5 -39 -18 -39 -14 0 -19 7 -19 25 0 26
18 33 37 14z"/>
<path d="M1550 2689 c0 -6 9 -8 20 -4 26 8 25 -3 -2 -32 l-21 -23 29 0 c17 0
24 3 17 8 -8 5 -9 13 -3 22 16 26 11 40 -15 40 -14 0 -25 -5 -25 -11z"/>
<path d="M1614 2673 c-5 -19 -2 -30 12 -40 17 -12 21 -11 36 7 13 17 15 27 8
41 -16 28 -48 24 -56 -8z m41 -8 c0 -10 -6 -20 -12 -22 -8 -3 -13 5 -13 22 0
17 5 25 13 23 6 -3 12 -13 12 -23z"/>
<path d="M1684 2689 c-4 -8 0 -9 15 -4 27 8 27 -3 -1 -32 l-21 -23 34 1 c19 1
26 3 16 6 -17 4 -17 6 -2 23 9 10 14 24 10 29 -8 14 -42 14 -51 0z"/>
<path d="M1750 2680 c0 -13 7 -20 20 -20 11 0 20 -5 20 -11 0 -6 -9 -9 -20 -6
-22 6 -28 -8 -7 -16 34 -12 54 37 20 50 -15 6 -15 7 3 14 16 6 15 8 -8 8 -22
1 -28 -4 -28 -19z"/>
<path d="M980 2330 l0 -190 35 0 35 0 0 74 c0 50 -4 76 -12 79 -7 3 33 6 90 6
l102 1 0 35 0 35 -90 0 -90 0 0 40 0 40 125 0 125 0 0 35 0 35 -160 0 -160 0
0 -190z"/>
<path d="M1396 2343 c-32 -98 -60 -184 -63 -191 -4 -10 5 -13 33 -10 33 3 39
7 49 37 l11 35 65 -1 64 -1 14 -36 c12 -31 18 -36 47 -36 38 0 38 -1 23 51 -7
21 -16 36 -22 32 -6 -3 -7 -1 -3 6 4 6 -13 74 -39 151 l-47 140 -37 0 -38 0
-57 -177z m133 -45 c1 -14 -7 -18 -39 -18 -22 0 -40 1 -40 3 0 3 27 89 37 117
6 16 41 -70 42 -102z"/>
<path d="M1685 2490 c6 -29 8 -283 3 -325 -3 -19 3 -20 107 -23 131 -3 169 11
199 71 17 36 17 41 2 81 -15 39 -15 46 -1 72 19 37 19 48 -1 90 -26 54 -56 64
-194 64 l-122 0 7 -30z m240 -39 c-3 -5 -1 -12 5 -16 5 -3 10 -15 10 -26 0
-11 5 -17 10 -14 6 3 10 1 10 -5 0 -7 -7 -10 -15 -7 -8 4 -17 2 -20 -3 -4 -6
-44 -10 -91 -10 l-84 0 0 40 0 39 83 4 c45 1 86 4 90 5 5 1 6 -2 2 -7z m-1
-167 c20 -20 20 -38 0 -58 -11 -12 -36 -16 -90 -16 -48 0 -73 -4 -69 -10 3 -5
1 -10 -4 -10 -7 0 -11 23 -11 55 l0 55 79 0 c59 0 84 -4 95 -16z"/>
<path d="M1130 2055 c0 -9 9 -15 25 -15 24 0 25 -2 25 -65 0 -51 3 -65 15 -65
12 0 15 14 15 65 0 63 1 65 25 65 16 0 25 6 25 15 0 12 -14 15 -65 15 -51 0
-65 -3 -65 -15z"/>
<path d="M1304 2047 c-38 -33 -37 -81 1 -115 75 -64 170 44 100 113 -30 31
-66 32 -101 2z m84 -19 c7 -7 12 -24 12 -40 0 -50 -66 -62 -91 -17 -23 43 44
92 79 57z"/>
<path d="M1447 2008 c8 -94 56 -126 108 -73 21 20 25 34 25 80 0 42 -3 55 -15
55 -11 0 -15 -13 -15 -54 0 -59 -16 -82 -49 -71 -25 8 -36 43 -28 91 5 28 3
34 -13 34 -16 0 -18 -7 -13 -62z"/>
<path d="M1590 1990 c0 -64 3 -80 15 -80 8 0 15 9 15 20 0 15 7 20 25 20 14 0
29 -8 35 -20 6 -11 17 -20 25 -20 18 0 19 12 3 28 -10 10 -10 17 0 32 34 54 1
100 -71 100 l-47 0 0 -80z m99 32 c13 -25 2 -38 -36 -44 -32 -4 -33 -3 -33 29
0 30 3 33 30 33 18 0 33 -7 39 -18z"/>
<path d="M1752 2058 c-16 -16 -15 -53 1 -66 6 -6 28 -12 47 -14 46 -4 48 -32
3 -36 -19 -2 -33 1 -33 7 0 6 -7 11 -15 11 -22 0 -19 -27 4 -40 48 -25 111 -2
111 39 0 26 -23 42 -62 44 -22 1 -34 8 -36 20 -3 14 4 17 32 17 20 0 36 -4 36
-10 0 -5 7 -10 15 -10 8 0 15 6 15 13 0 24 -23 37 -65 37 -23 0 -46 -5 -53
-12z"/>
<path d="M2277 1980 l-18 -30 -39 26 c-36 24 -40 25 -67 10 -15 -8 -50 -33
-77 -55 -27 -23 -60 -44 -75 -47 -14 -3 -53 -18 -86 -34 -36 -17 -69 -27 -81
-24 -16 4 -26 -3 -42 -30 -25 -42 -37 -44 -63 -13 -19 22 -19 22 -34 3 -8 -11
-15 -25 -15 -32 0 -7 -13 -17 -29 -22 -16 -6 -37 -22 -46 -36 -36 -55 -116
-23 -174 70 -14 23 -59 70 -99 103 l-73 61 -45 -26 c-55 -32 -98 -28 -152 14
-49 39 -136 82 -165 82 -23 0 -96 -27 -189 -69 -37 -17 -52 -19 -68 -11 -11 6
-20 15 -20 20 0 13 -60 50 -81 50 -38 0 -91 -251 -87 -407 l3 -98 53 -35 c29
-19 48 -36 41 -39 -6 -2 -31 11 -55 28 l-44 31 6 -28 c4 -15 11 -28 16 -30 4
-2 5 -14 2 -26 -6 -23 41 -181 56 -191 6 -3 10 -2 10 4 0 5 19 12 42 16 70 11
74 14 88 58 l12 42 20 -39 20 -38 236 6 c259 7 332 13 332 27 0 5 -26 9 -59 9
-43 0 -65 5 -84 20 -26 21 -72 26 -96 11 -10 -6 -25 -4 -45 6 -17 9 -66 17
-115 20 -88 5 -141 18 -141 35 0 6 10 8 23 4 12 -3 202 -7 422 -8 393 -1 404
-4 82 -23 -70 -5 -130 -12 -134 -18 -3 -6 13 -7 43 -3 27 3 126 10 219 16 94
6 184 15 201 21 19 6 78 6 160 1 71 -5 132 -7 137 -5 4 3 90 5 192 5 101 0
197 3 212 8 15 5 22 9 16 9 -7 1 -13 8 -13 17 0 9 7 14 18 13 38 -5 70 12 75
41 8 35 56 94 57 68 0 -10 -4 -18 -8 -18 -8 0 -72 -130 -72 -145 0 -14 42 29
58 60 8 17 17 24 19 18 5 -14 -34 -83 -47 -83 -4 0 -10 -8 -12 -18 -4 -12 -21
-23 -50 -30 -25 -7 -53 -14 -62 -18 -27 -10 -18 10 14 31 55 37 39 42 -33 13
-40 -17 -108 -36 -152 -43 -102 -18 -182 -32 -272 -51 -43 -8 -130 -14 -216
-14 -110 0 -147 -3 -156 -14 -22 -26 13 -36 145 -40 129 -4 126 -3 -16 11 -66
7 -52 8 115 14 226 8 452 -4 601 -32 60 -11 115 -21 123 -22 18 -2 74 151 94
257 16 81 9 88 -23 25 -11 -21 -23 -39 -26 -39 -12 0 10 47 38 83 29 37 29 39
27 144 -1 59 -6 131 -11 161 -10 60 -46 182 -58 196 -14 15 -94 25 -108 14
-10 -8 -17 -6 -28 10 -21 30 -47 27 -67 -8z m-1316 -16 c37 -20 47 -29 37 -36
-9 -6 -6 -7 9 -3 16 4 26 0 38 -18 31 -48 99 -61 157 -31 52 27 67 21 176 -73
20 -18 31 -33 24 -33 -8 0 12 -24 43 -52 92 -85 140 -96 170 -38 8 15 26 30
39 34 14 3 31 16 37 29 6 12 13 24 15 26 2 2 21 -11 44 -29 22 -17 40 -27 40
-21 0 5 -5 13 -12 17 -8 5 -7 10 4 18 8 6 20 21 27 33 12 23 49 28 63 9 4 -6
13 -4 22 3 11 9 16 10 16 2 0 -6 12 -10 28 -10 16 1 20 3 10 6 -10 2 -18 13
-18 24 0 13 -4 18 -12 13 -10 -5 -10 -4 0 7 7 7 30 14 52 14 22 0 40 3 40 6 0
4 10 9 23 13 12 3 46 28 75 56 30 28 62 50 74 50 21 0 21 0 -2 -25 -26 -27
-17 -35 11 -9 16 14 20 14 43 -2 15 -9 28 -15 29 -13 2 2 11 16 20 32 21 33
39 34 60 5 11 -16 19 -19 24 -12 4 6 26 11 48 10 37 -2 41 -5 55 -44 9 -23 21
-47 27 -53 8 -8 2 -28 -23 -78 -19 -36 -34 -74 -34 -83 0 -26 -12 -22 -42 12
-14 17 -30 30 -35 30 -5 0 -23 -20 -41 -45 -36 -51 -122 -121 -178 -144 -40
-17 -86 -41 -226 -123 -94 -54 -136 -63 -255 -54 -173 14 -356 82 -410 152
-16 22 -50 46 -88 63 -56 26 -63 32 -84 82 -24 57 -66 109 -87 109 -7 0 -25
-22 -41 -50 -15 -27 -31 -50 -36 -50 -11 0 47 -106 98 -178 43 -61 45 -62 45
-33 0 42 33 43 50 1 7 -17 27 -42 44 -55 17 -14 25 -25 18 -25 -8 0 -30 16
-49 35 -22 22 -34 29 -30 18 13 -48 13 -48 -33 -51 -43 -2 -46 0 -62 33 -19
37 -16 44 8 20 9 -8 20 -15 25 -15 13 0 -12 46 -51 95 -45 56 -82 133 -75 155
6 19 -47 90 -68 90 -6 0 -52 -42 -102 -92 -81 -84 -97 -95 -155 -114 -36 -11
-72 -24 -81 -28 -21 -9 -43 38 -29 64 5 10 10 43 10 72 0 62 45 247 64 267 18
17 49 7 61 -21 23 -49 39 -46 240 48 42 19 59 18 116 -12z m78 -241 c6 -6 20
-32 32 -58 20 -42 77 -95 104 -95 5 0 24 -11 40 -25 l30 -25 -54 23 c-66 27
-127 84 -136 127 -5 21 -10 29 -17 22 -7 -7 -4 -19 7 -36 10 -15 15 -29 12
-32 -11 -12 -56 83 -54 114 2 29 3 30 14 15 7 -10 17 -23 22 -30z m-150 -56
c20 -67 32 -91 78 -157 17 -25 17 -25 -2 -10 -39 29 -55 56 -76 125 -12 39
-28 84 -36 100 -7 17 -11 21 -7 10 8 -26 20 -79 29 -130 5 -28 3 -37 -4 -30
-12 12 -41 165 -34 178 10 18 31 -17 52 -86z m105 38 l6 -50 -15 38 c-8 21
-12 44 -8 53 8 21 10 16 17 -41z m1376 -32 c0 -18 -5 -33 -11 -33 -8 0 -10 13
-6 38 l6 37 -20 -38 c-11 -22 -23 -37 -25 -34 -3 3 4 24 16 48 24 47 40 40 40
-18z m-1563 0 c-4 -20 -18 -48 -32 -63 -34 -35 -54 -95 -48 -140 4 -27 2 -31
-6 -20 -13 19 -14 71 -2 103 5 14 24 41 41 61 18 20 27 36 21 36 -16 0 -13 21
6 42 23 26 26 23 20 -19z m1688 15 c-7 -17 -104 -68 -110 -58 -9 14 7 40 24
40 10 0 26 7 37 15 24 18 55 20 49 3z m38 -31 c-13 -24 -105 -119 -110 -114
-2 3 15 27 38 53 24 27 50 57 58 66 17 20 27 16 14 -5z m-1540 -28 c10 -19 32
-47 48 -62 17 -16 28 -31 25 -35 -10 -9 -73 57 -87 92 -7 17 -18 35 -23 39 -7
5 -6 7 4 5 7 -3 22 -20 33 -39z m-153 -4 c0 -19 -4 -35 -10 -35 -11 0 -14 53
-3 63 11 12 13 8 13 -28z m-99 8 c-13 -24 -94 -101 -90 -85 5 16 81 100 92
101 4 1 3 -7 -2 -16z m1703 -31 c-22 -20 -49 -50 -59 -65 -10 -15 -20 -26 -22
-23 -10 9 29 66 64 95 53 44 66 38 17 -7z m-161 11 c-5 -12 -2 -15 10 -10 9 3
17 2 17 -3 0 -6 -4 -10 -8 -10 -5 0 -23 -14 -40 -31 -39 -38 -43 -23 -4 16
l27 28 -34 -19 c-18 -10 -52 -35 -75 -55 -34 -30 -136 -89 -152 -89 -15 0 13
23 49 41 39 20 129 81 187 128 31 25 31 25 23 4z m92 -23 c-4 -11 -24 -41 -46
-66 -38 -44 -48 -64 -31 -64 4 0 13 5 20 12 6 6 15 8 19 4 4 -4 -1 -12 -12
-18 -10 -6 -32 -25 -47 -42 -31 -34 -38 -24 -11 14 10 14 16 33 15 42 -2 10
17 43 42 74 25 31 46 61 46 67 0 5 3 8 6 4 3 -3 3 -15 -1 -27z m-1533 -20 c40
-26 55 -60 19 -40 -11 5 -22 15 -25 22 -3 7 -4 0 0 -16 3 -16 23 -49 45 -74
21 -25 39 -50 39 -56 0 -17 -79 75 -96 112 -19 42 -36 42 -24 1 9 -32 31 -63
60 -86 8 -6 12 -15 8 -19 -13 -12 -47 26 -74 84 -21 45 -24 59 -15 79 13 27
12 28 63 -7z m262 -29 c11 -12 16 -21 12 -21 -12 0 -86 63 -86 72 0 11 48 -22
74 -51z m1430 37 c-15 -28 -38 -48 -53 -48 -9 0 -2 11 19 30 39 33 44 35 34
18z m-1895 -11 c-2 -2 -21 -15 -41 -30 -37 -27 -68 -35 -68 -17 0 6 7 10 15
10 8 0 31 11 51 25 20 14 39 23 42 20 3 -3 3 -6 1 -8z m539 -37 c19 0 132 -90
132 -106 0 -11 -12 -4 -39 21 -21 21 -65 52 -97 69 -32 18 -60 38 -62 46 -3 8
7 5 26 -8 16 -12 35 -22 40 -22z m-495 -26 c-12 -28 -18 -34 -21 -21 -4 18 25
73 34 64 2 -2 -3 -21 -13 -43z m-38 -6 c6 -20 18 -34 30 -37 11 -2 24 -9 30
-16 5 -7 23 -16 39 -19 24 -6 27 -5 19 6 -15 19 -23 57 -16 76 4 10 10 0 17
-29 6 -24 16 -44 21 -44 14 0 35 -15 35 -24 0 -4 -23 -13 -51 -20 -37 -10 -54
-10 -62 -2 -6 6 -17 11 -25 11 -7 0 -29 12 -48 26 -51 40 -51 23 0 -35 25 -29
46 -56 46 -61 0 -19 -16 -10 -33 18 -21 35 -74 92 -85 92 -13 0 -63 56 -57 62
4 3 23 4 43 1 24 -3 44 1 57 11 28 21 30 20 40 -16z m319 -57 c31 -29 34 -46
6 -31 -26 14 -70 80 -70 105 1 15 5 11 19 -15 11 -19 31 -46 45 -59z m1527 33
c-8 -18 -15 -24 -22 -17 -6 6 -6 19 1 38 8 21 14 25 22 17 9 -9 8 -18 -1 -38z
m-1341 11 c5 -14 31 -39 57 -55 48 -31 44 -41 -6 -16 -25 13 -81 76 -81 90 0
17 22 3 30 -19z m1059 9 c-15 -19 -89 -58 -89 -47 1 9 79 61 94 62 5 1 3 -6
-5 -15z m191 -3 c0 -5 -7 -15 -16 -22 -9 -7 -21 -25 -26 -39 -6 -14 -12 -20
-15 -13 -5 15 34 83 48 83 5 0 9 -4 9 -9z m-150 -16 c0 -2 -21 -13 -47 -25
-26 -12 -58 -31 -70 -42 -13 -12 -23 -16 -23 -10 0 15 62 61 97 72 34 10 43
11 43 5z m-262 -47 c-6 -17 -36 -34 -44 -25 -4 4 1 14 12 22 23 18 37 19 32 3z
m105 -2 c6 -15 -1 -26 -15 -26 -5 0 -6 5 -3 10 10 16 -12 12 -55 -10 -23 -12
-40 -16 -40 -10 0 11 75 49 96 50 7 0 14 -6 17 -14z m147 -6 c0 -13 -32 -28
-48 -23 -10 4 -10 8 -1 19 13 16 49 19 49 4z m-1684 -57 c23 -7 54 -27 69 -43
37 -39 22 -39 -22 0 -18 17 -44 30 -57 30 -13 0 -34 9 -47 21 -26 23 -31 23
57 -8z m181 -23 c7 0 15 -4 18 -10 13 -21 -37 -9 -60 15 -35 34 -31 55 3 22
15 -15 33 -27 39 -27z m109 -40 c6 0 18 -8 25 -17 12 -15 12 -16 -6 -9 -11 5
-29 11 -40 14 -24 6 -45 21 -45 33 0 4 12 1 28 -7 15 -7 32 -14 38 -14z m-241
-2 c24 -13 43 -27 41 -33 -1 -5 -20 -13 -42 -16 -46 -8 -74 10 -74 48 0 29 17
29 75 1z m305 7 c16 -8 53 -19 82 -24 l53 -9 -49 -1 c-47 -1 -125 25 -126 42
0 10 7 9 40 -8z m1569 -5 c-43 -23 -115 -88 -106 -96 3 -3 20 4 36 16 30 21
31 21 31 1 0 -30 -24 -48 -59 -43 -17 2 -29 7 -26 11 2 4 -9 5 -26 3 -17 -3
-29 0 -29 7 0 11 13 15 36 12 6 -1 30 17 54 40 37 36 39 39 13 26 -16 -9 -35
-23 -42 -31 -8 -9 -18 -16 -24 -16 -6 0 0 12 14 26 l24 27 -25 -13 c-14 -7
-39 -26 -57 -42 -28 -27 -36 -30 -70 -23 l-38 8 34 14 c28 12 36 12 42 1 6 -9
10 -8 15 5 8 21 58 49 94 53 34 4 100 21 107 28 4 3 13 6 22 6 9 -1 0 -10 -20
-20z m-1708 -16 c11 -14 9 -15 -16 -12 -16 1 -30 9 -33 16 -6 18 33 15 49 -4z
m1489 -2 c0 -12 -79 -47 -87 -39 -8 8 -8 8 37 29 41 19 50 21 50 10z m-110
-31 c-26 -14 -70 -22 -70 -12 0 11 23 18 60 20 18 0 21 -2 10 -8z"/>
<path d="M853 1962 c-7 -4 -9 -13 -4 -21 7 -10 13 -11 31 -1 20 11 38 10 87
-6 14 -4 13 -1 -6 15 -23 21 -84 28 -108 13z"/>
<path d="M892 1922 c-25 -8 -10 -20 36 -27 26 -4 56 -11 67 -16 13 -7 12 -4
-4 8 -30 22 -83 41 -99 35z"/>
<path d="M2298 1883 c-10 -2 -18 -9 -18 -14 0 -6 6 -6 18 0 9 5 40 7 67 4 37
-3 46 -2 35 6 -15 11 -69 13 -102 4z"/>
<path d="M2306 1842 c-9 -15 69 -26 91 -13 15 9 14 10 -12 11 -16 0 -40 3 -51
6 -12 3 -25 1 -28 -4z"/>
<path d="M1342 1793 c15 -15 31 -23 35 -19 9 8 -32 46 -50 46 -7 0 1 -12 15
-27z"/>
<path d="M1185 1718 c-14 -11 -24 -23 -21 -26 3 -3 15 3 26 13 11 10 34 17 52
17 18 -1 48 -2 66 -2 19 0 47 -9 63 -21 17 -12 32 -19 35 -16 3 3 -10 15 -28
28 -46 33 -155 37 -193 7z"/>
<path d="M1928 1723 c-14 -13 -20 -14 -32 -4 -13 11 -22 7 -55 -21 -23 -18
-41 -37 -41 -42 0 -9 18 3 57 37 13 12 29 17 39 13 9 -3 22 -1 30 5 9 8 22 7
48 -2 31 -11 38 -11 54 4 23 21 28 21 60 -2 32 -22 72 -36 72 -24 -1 4 -24 19
-52 32 -49 23 -53 24 -81 8 -26 -15 -31 -15 -50 -2 -27 19 -29 19 -49 -2z"/>
<path d="M2040 1670 c0 -5 -7 -10 -15 -10 -8 0 -15 -4 -15 -8 0 -5 20 -4 44 2
25 6 42 14 40 18 -7 12 -54 10 -54 -2z"/>
<path d="M1277 1654 c-8 -8 124 -35 132 -27 3 2 0 7 -5 12 -13 13 -117 24
-127 15z"/>
<path d="M2068 1633 c-38 -4 -54 -23 -19 -23 34 0 81 12 81 21 0 5 -6 8 -12 7
-7 -1 -30 -3 -50 -5z"/>
<path d="M66 1538 c-20 -28 -20 -48 0 -76 17 -25 71 -31 92 -10 16 16 16 80 0
96 -21 21 -75 15 -92 -10z"/>
<path d="M2826 1538 c-9 -12 -16 -29 -16 -38 0 -9 7 -26 16 -38 23 -34 83 -27
104 11 13 24 13 30 0 55 -21 37 -81 44 -104 10z"/>
<path d="M114 1380 c3 -19 8 -59 11 -89 29 -262 185 -569 394 -776 539 -535
1393 -540 1937 -13 241 234 379 520 419 863 3 32 2 45 -4 35 -5 -8 -12 -44
-16 -80 -33 -308 -212 -647 -449 -853 -260 -224 -557 -338 -891 -341 -239 -2
-412 35 -610 129 -426 205 -726 622 -772 1075 -3 30 -9 62 -14 70 -6 10 -8 4
-5 -20z"/>
<path d="M1928 1314 c-38 -20 -35 -34 5 -34 40 0 46 5 40 31 -6 23 -10 23 -45
3z"/>
<path d="M2060 1320 c-41 -6 -39 -7 27 -8 39 -1 75 3 78 8 7 11 -34 11 -105 0z"/>
<path d="M680 1255 c0 -11 -9 -35 -20 -53 -11 -18 -18 -37 -15 -43 4 -5 0 -9
-7 -9 -10 0 -9 -3 1 -9 12 -8 12 -12 2 -25 -11 -12 -11 -16 -1 -16 10 0 10 -3
0 -15 -7 -8 -16 -15 -21 -15 -11 0 -39 66 -39 91 0 14 -7 19 -25 19 l-25 0 25
-50 c14 -27 31 -50 37 -50 6 0 8 -3 5 -6 -11 -11 13 -44 31 -44 13 0 14 -2 4
-9 -10 -6 -2 -22 32 -67 73 -96 110 -128 168 -139 28 -5 53 -16 56 -22 2 -9
-7 -8 -33 3 -65 27 -60 10 11 -44 136 -103 312 -176 484 -203 104 -16 304 -6
405 21 146 39 317 125 410 206 l30 26 -102 -6 c-57 -3 -111 -9 -120 -14 -10
-5 -81 -6 -158 -3 -175 8 -144 24 38 19 70 -2 128 1 130 5 1 4 54 10 117 12
112 5 115 6 145 36 l30 30 -110 -7 c-118 -7 -146 -13 -74 -15 42 -2 41 -2 -16
-10 -33 -4 -128 -12 -211 -18 -164 -11 -240 -25 -248 -47 -7 -18 15 -29 87
-45 32 -7 60 -15 62 -19 2 -4 -20 -13 -49 -20 -46 -11 -66 -10 -135 4 -84 16
-148 19 -190 7 -21 -6 -22 -8 -8 -19 8 -7 44 -17 79 -21 l63 -8 -50 -2 c-40
-2 -46 -4 -28 -11 25 -10 361 -6 412 6 26 5 32 4 27 -5 -5 -7 -14 -10 -21 -7
-8 3 -16 0 -18 -7 -3 -9 -55 -12 -193 -12 -122 1 -175 -2 -150 -7 22 -5 45
-13 53 -20 8 -6 41 -9 88 -6 41 3 72 1 69 -4 -3 -4 -27 -8 -54 -8 -27 0 -60
-4 -74 -10 -32 -12 -139 24 -176 58 -13 12 -38 26 -57 33 -27 9 -33 16 -33 38
0 25 3 28 28 24 21 -4 24 -2 12 6 -13 9 -12 11 5 11 19 1 19 1 3 14 -19 14
-25 32 -8 21 6 -3 10 -1 10 4 0 6 -8 11 -17 11 -11 0 -14 3 -8 8 9 6 12 26 5
35 -3 4 -12 42 -13 62 -1 11 -6 26 -10 33 -5 6 -6 15 -3 20 2 4 -2 18 -9 32
l-13 25 -12 -29 c-6 -16 -8 -31 -5 -34 2 -3 -1 -12 -8 -20 -10 -13 -9 -15 6
-9 15 6 16 4 5 -16 -7 -12 -13 -25 -14 -29 -1 -5 -3 -11 -4 -15 -6 -19 -4 -39
4 -44 5 -4 -2 -13 -15 -19 -23 -13 -23 -13 -4 -21 19 -8 19 -8 -2 -15 -33 -9
-17 -26 18 -19 28 6 29 5 29 -30 0 -32 -3 -36 -20 -31 -11 3 -30 9 -42 12 -36
10 -58 35 -58 66 0 25 3 28 20 23 26 -8 25 2 -2 26 -21 17 -21 18 -3 12 20 -6
20 -6 1 15 -13 15 -15 22 -6 22 10 0 10 3 0 15 -10 12 -10 15 0 15 9 0 9 4 2
13 -5 6 -13 36 -17 65 -8 60 -21 58 -29 -3 -2 -22 -5 -40 -6 -40 -1 0 -3 -12
-4 -27 -2 -43 -17 -46 -75 -16 -40 20 -49 29 -37 34 14 5 14 9 4 22 -11 14
-10 15 6 8 19 -7 19 -6 1 14 -13 14 -14 20 -5 20 9 0 7 5 -6 16 -10 8 -13 13
-6 9 9 -5 11 2 6 27 -3 18 -7 49 -9 68 -1 19 -3 37 -5 40 -3 7 -7 22 -9 40 -1
12 -5 11 -16 -4 -16 -20 -20 -68 -8 -80 7 -6 11 -34 16 -111 1 -22 6 -46 10
-52 5 -8 4 -13 -2 -13 -6 0 -14 0 -18 0 -9 0 -11 17 -16 113 -4 74 -18 102
-35 70 -12 -21 -11 -55 1 -64 4 -3 -2 -18 -13 -32 -18 -22 -19 -27 -6 -27 20
0 20 -14 1 -30 -13 -11 -13 -15 -3 -22 10 -8 10 -11 1 -15 -18 -7 -16 -23 3
-23 8 0 12 -4 9 -10 -3 -5 -33 -10 -66 -10 -37 0 -58 4 -54 10 3 5 -9 16 -27
23 l-33 14 24 12 24 13 -34 16 c-29 13 -31 16 -14 19 27 7 44 23 23 23 -9 0
-20 4 -23 10 -4 6 6 7 25 4 39 -8 39 4 -1 18 -27 9 -29 12 -15 20 16 9 16 11
-1 24 -10 7 -14 14 -9 14 5 0 2 8 -5 17 -12 15 -12 16 6 9 17 -6 17 -4 -4 18
-15 16 -19 26 -11 26 10 0 8 5 -4 19 -10 10 -13 21 -7 22 5 2 -1 22 -15 44
-17 29 -24 35 -24 20z m24 -110 c8 -19 18 -64 21 -99 7 -73 -5 -91 -39 -57
-17 18 -21 33 -20 80 1 58 10 111 19 111 3 0 11 -16 19 -35z m330 -275 c9 0
16 -4 16 -10 0 -16 63 -28 85 -17 19 10 19 9 3 -10 -10 -11 -18 -22 -18 -26 0
-3 8 -4 18 -1 14 5 14 3 -2 -10 -19 -16 -19 -16 2 -16 15 0 22 -6 22 -20 0
-20 -1 -20 -32 -4 -43 21 -128 76 -128 82 0 2 7 2 15 -2 8 -3 15 -1 15 4 0 6
-6 10 -14 10 -19 0 -39 27 -30 41 5 9 10 8 19 -4 7 -10 20 -17 29 -17z m-66
-12 c16 -16 15 -48 -1 -48 -7 0 -22 6 -32 14 -16 12 -17 16 -6 30 16 19 23 20
39 4z m-26 -49 c21 -11 48 -19 62 -19 25 0 49 -18 66 -50 5 -10 25 -21 44 -24
19 -4 39 -13 46 -21 7 -8 16 -12 21 -9 14 8 72 -24 92 -52 30 -40 11 -40 -26
0 -35 37 -64 48 -53 21 5 -13 2 -13 -25 0 -16 9 -27 20 -24 25 3 5 -7 12 -22
15 -42 9 -57 19 -70 47 -10 19 -23 27 -52 31 -44 5 -140 47 -141 60 0 10 33 0
82 -24z m22 -60 c-3 -5 5 -9 19 -9 28 0 61 -29 83 -73 14 -30 13 -29 -21 10
-21 24 -48 44 -66 48 -29 7 -79 47 -79 65 0 5 16 0 35 -11 19 -12 32 -25 29
-30z m1116 12 c0 -16 -290 -39 -312 -25 -8 6 45 13 137 20 83 6 156 12 163 12
6 1 12 -2 12 -7z m-105 -72 c-41 -9 -220 -11 -211 -2 8 8 217 21 231 13 6 -2
-3 -8 -20 -11z m-767 -69 c8 0 13 -3 9 -6 -9 -9 -72 14 -101 37 -46 36 -27 39
25 3 28 -19 58 -34 67 -34z m115 9 c10 -11 31 -25 47 -31 40 -13 39 -29 -1
-18 -35 10 -56 25 -70 52 -13 24 2 23 24 -3z"/>
<path d="M287 1207 c-34 -10 -38 -13 -32 -36 9 -36 24 -51 49 -51 28 0 46 18
46 46 0 27 -10 54 -19 53 -3 -1 -23 -6 -44 -12z m46 -27 c3 -11 -1 -27 -10
-35 -18 -19 -18 -19 -37 1 -22 21 -20 33 7 44 32 13 34 12 40 -10z"/>
<path d="M1054 1205 c-30 -13 -54 -45 -35 -45 17 0 99 38 105 49 10 15 -32 13
-70 -4z"/>
<path d="M2650 1212 c0 -5 15 -14 33 -19 l32 -10 -42 -18 c-24 -9 -43 -21 -43
-25 0 -9 55 -30 77 -30 8 0 11 5 8 10 -3 6 -15 10 -26 10 -31 0 -22 18 16 31
52 19 46 29 -32 53 -13 4 -23 3 -23 -2z"/>
<path d="M815 1194 c-28 -13 -26 -14 50 -10 115 7 154 25 55 25 -46 0 -87 -6
-105 -15z"/>
<path d="M808 1162 c19 -13 109 -14 117 -2 4 6 -17 10 -62 10 -38 0 -62 -4
-55 -8z"/>
<path d="M1600 1142 c8 -6 101 -15 205 -21 192 -12 245 -18 245 -30 0 -3 -20
-14 -45 -24 -25 -11 -45 -23 -45 -27 0 -5 16 -21 34 -35 29 -22 33 -31 27 -48
-14 -39 -6 -42 112 -40 131 3 130 -4 -4 -16 l-94 -9 128 2 128 2 30 38 c17 20
30 38 28 40 -2 2 -62 0 -134 -4 -71 -4 -124 -8 -117 -8 22 -3 13 -18 -13 -20
-17 -1 -28 4 -31 16 -3 9 -13 31 -22 49 -15 30 -15 32 15 62 30 30 73 42 73
21 0 -6 55 -11 143 -12 l142 -1 -130 -12 c-134 -12 -131 -17 15 -18 l85 0 -80
-6 c-96 -7 -88 -19 15 -22 l74 -2 29 51 29 52 -189 0 c-103 0 -203 4 -220 9
-45 13 -452 25 -433 13z m680 -198 c0 -15 -26 -25 -45 -18 -30 12 -11 33 28
31 9 -1 17 -7 17 -13z"/>
<path d="M2073 1143 c31 -2 83 -2 115 0 31 2 5 3 -58 3 -63 0 -89 -1 -57 -3z"/>
<path d="M360 1109 c0 -23 -50 -44 -61 -27 -7 10 -9 9 -9 -4 0 -23 11 -48 21
-48 5 0 9 6 9 13 0 8 11 19 25 25 15 7 25 8 25 2 0 -6 5 -10 11 -10 6 0 8 9 4
23 -9 29 -25 46 -25 26z"/>
<path d="M2620 1115 c0 -5 10 -19 22 -32 l21 -23 -26 0 c-30 0 -35 -11 -12
-30 10 -9 15 -9 15 -1 0 6 11 11 25 11 33 0 32 10 -10 50 -19 19 -35 30 -35
25z"/>
<path d="M373 1029 c-7 -7 -9 -25 -6 -43 6 -28 5 -30 -11 -17 -9 8 -15 20 -12
27 3 7 1 16 -5 20 -7 4 -9 -6 -7 -27 2 -29 7 -34 28 -34 22 0 25 4 22 33 -3
39 19 40 28 1 4 -17 8 -20 14 -11 8 13 -17 62 -32 62 -5 0 -13 -5 -19 -11z"/>
<path d="M2199 1016 c-2 -2 -24 -7 -48 -10 -81 -11 -55 -16 82 -16 85 0 137 4
137 10 0 6 -30 10 -69 10 -38 0 -76 2 -83 5 -8 3 -16 4 -19 1z"/>
<path d="M2607 1013 c-51 -6 -37 -23 19 -23 31 0 44 4 42 12 -5 14 -12 16 -61
11z"/>
<path d="M2551 963 c-27 -18 -27 -55 -1 -78 38 -35 96 17 71 63 -14 26 -45 33
-70 15z m53 -26 c8 -12 7 -21 -6 -33 -22 -22 -48 -11 -48 20 0 37 34 45 54 13z"/>
<path d="M392 938 c-7 -7 -12 -22 -12 -34 0 -23 28 -59 38 -49 3 3 0 11 -6 17
-7 7 -12 22 -12 35 0 35 47 32 56 -3 4 -17 10 -22 17 -15 15 15 -19 61 -46 61
-13 0 -28 -5 -35 -12z"/>
<path d="M2496 882 c-3 -5 6 -15 19 -22 36 -19 31 -30 -14 -30 -54 0 -57 -12
-14 -43 40 -29 62 -26 26 3 -27 21 -20 30 23 30 47 0 48 11 4 43 -21 15 -41
23 -44 19z"/>
<path d="M464 860 c-28 -11 -36 -35 -22 -65 19 -43 72 -43 88 -1 15 40 -26 81
-66 66z m40 -26 c20 -19 20 -28 1 -44 -30 -25 -70 15 -45 45 16 19 25 19 44
-1z"/>
<path d="M2427 792 c-5 -7 -6 -26 -2 -42 7 -31 -2 -39 -23 -18 -6 6 -14 9 -17
7 -2 -3 11 -21 30 -39 19 -18 38 -30 42 -27 4 4 1 13 -5 19 -22 22 -14 38 17
32 16 -4 32 -1 35 5 5 7 -5 11 -28 11 -32 0 -35 3 -38 33 -2 21 -6 28 -11 19z"/>
<path d="M532 745 c-12 -24 -18 -47 -13 -49 13 -8 102 25 95 35 -3 5 -20 2
-40 -6 -37 -15 -40 -12 -19 25 16 29 18 40 7 40 -4 0 -18 -20 -30 -45z"/>
<path d="M597 682 c-32 -34 -33 -36 -6 -63 25 -25 39 -17 15 10 -10 11 -13 22
-8 25 5 3 15 -1 22 -9 7 -8 17 -12 22 -9 5 3 1 12 -9 19 -13 10 -15 17 -7 25
8 8 14 7 24 -5 7 -8 17 -15 23 -15 6 0 0 11 -13 25 -13 14 -26 25 -30 25 -3 0
-18 -13 -33 -28z"/>
<path d="M2374 681 l27 -28 -50 5 c-29 2 -51 0 -51 -5 0 -15 59 -67 67 -59 4
4 -3 16 -17 26 l-25 20 54 0 55 0 -34 35 c-19 19 -38 35 -44 35 -5 0 3 -13 18
-29z"/>
<path d="M666 614 c-15 -20 -25 -38 -21 -42 3 -3 10 0 14 7 13 20 31 4 32 -27
0 -26 1 -26 9 -4 5 12 16 22 24 22 19 0 27 25 13 42 -32 38 -42 38 -71 2z m53
-8 c9 -10 9 -16 1 -21 -13 -8 -42 14 -34 26 8 13 20 11 33 -5z"/>
<path d="M2283 607 c35 -53 12 -85 -32 -43 -37 35 -47 33 -21 -5 40 -55 113
-21 80 38 -8 14 -22 29 -30 31 -11 4 -11 0 3 -21z"/>
<path d="M795 560 c-3 -5 2 -13 10 -18 14 -7 13 -11 -5 -34 -31 -40 -23 -58 9
-19 15 19 33 31 39 27 6 -3 13 -3 15 2 3 4 -10 17 -28 29 -19 13 -37 18 -40
13z"/>
<path d="M2123 524 l-21 -15 25 -38 25 -39 29 17 c16 9 29 19 29 24 0 10 -7 9
-30 -5 -26 -16 -40 0 -16 18 11 7 17 17 13 20 -4 4 -13 1 -22 -6 -9 -7 -19
-10 -23 -6 -4 4 4 16 18 26 30 24 6 27 -27 4z"/>
<path d="M857 474 c-18 -37 -14 -64 4 -31 8 13 14 15 30 7 15 -8 18 -17 13
-37 -5 -18 -4 -24 5 -19 17 11 53 86 41 86 -6 0 -13 -7 -16 -15 -8 -19 -15
-19 -39 -1 -16 12 -17 16 -6 30 11 13 11 16 0 16 -8 0 -22 -17 -32 -36z"/>
<path d="M2074 476 c8 -33 -29 -47 -49 -19 -20 25 -18 1 2 -42 18 -37 39 -49
28 -16 -4 14 0 23 14 30 26 14 31 14 31 -4 0 -8 5 -15 10 -15 14 0 13 5 -10
50 -23 45 -35 52 -26 16z"/>
<path d="M958 420 l-17 -40 29 -15 c34 -17 40 -18 40 -6 0 5 -9 13 -20 16 -11
3 -20 13 -20 21 0 12 4 12 21 4 11 -7 24 -8 27 -4 4 4 3 8 -3 11 -24 9 -39 23
-32 30 4 4 17 1 28 -6 12 -7 24 -10 27 -7 9 9 -10 24 -38 31 -22 5 -27 1 -42
-35z"/>
<path d="M1948 438 c-30 -11 -39 -33 -10 -24 14 5 21 -2 31 -29 7 -19 17 -35
22 -35 12 0 12 6 -7 41 -14 29 -14 32 3 45 22 16 3 18 -39 2z"/>
<path d="M1090 409 c0 -5 6 -12 14 -15 11 -4 13 -12 5 -31 -5 -13 -9 -31 -9
-39 0 -25 18 -6 25 26 5 22 12 30 28 30 27 0 12 14 -30 28 -21 7 -33 7 -33 1z"/>
<path d="M1832 397 c-24 -7 -31 -14 -27 -26 4 -9 9 -28 12 -43 3 -16 10 -28
15 -28 6 0 8 9 5 19 -3 14 2 21 19 25 35 9 29 27 -6 20 -36 -8 -41 11 -5 20
14 4 25 11 25 16 0 6 -1 10 -2 9 -2 -1 -18 -6 -36 -12z"/>
<path d="M1173 345 c-6 -25 -6 -48 -2 -51 5 -3 9 2 9 10 0 20 12 26 39 19 16
-4 20 -11 16 -24 -4 -11 -2 -19 3 -19 5 0 13 20 19 45 6 25 6 45 2 45 -5 0 -9
-7 -9 -16 0 -11 -8 -14 -27 -12 -23 2 -27 7 -25 26 6 41 -15 23 -25 -23z"/>
<path d="M1699 349 c-17 -34 3 -69 40 -69 49 0 74 57 37 82 -23 16 -65 8 -77
-13z m75 -12 c9 -15 7 -21 -8 -32 -35 -26 -74 13 -44 43 16 16 38 12 52 -11z"/>
<path d="M1286 338 c-9 -35 -7 -68 4 -68 6 0 10 7 10 15 0 22 27 18 33 -5 3
-11 10 -20 17 -20 7 0 8 5 2 17 -6 11 -6 23 1 34 16 26 1 49 -32 49 -21 0 -30
-6 -35 -22z m49 -1 c11 -9 14 -16 7 -21 -15 -9 -42 4 -42 20 0 18 11 18 35 1z"/>
<path d="M1398 338 c17 -17 15 -55 -4 -66 -14 -8 -11 -10 15 -14 29 -4 44 6
20 14 -12 4 -1 58 12 58 5 0 9 5 9 10 0 6 -14 10 -32 10 -25 0 -29 -3 -20 -12z"/>
<path d="M1470 300 l0 -50 35 0 c19 0 35 5 35 10 0 6 -11 10 -25 10 -22 0 -25
4 -25 40 0 22 -4 40 -10 40 -5 0 -10 -22 -10 -50z"/>
<path d="M1562 308 c3 -42 4 -43 41 -46 21 -2 37 1 37 7 0 6 -13 11 -30 11
-28 0 -30 3 -30 35 0 19 -5 35 -11 35 -6 0 -9 -17 -7 -42z"/>
</g>
</svg>
